<svg xmlns="http://www.w3.org/2000/svg" width="1365" height="1313.188" viewBox="0 0 1365 1313.188">
    <defs>
        <style>
            .background_background {
                opacity: 0.3;
            }

            .background_letters {
                fill: none;
                stroke: #ff005f;
            }
        </style>
    </defs>
    <g class="background_background" transform="translate(-139.556 -84.966)">
        <path class="background_letters"
            d="M750.115,619.061V114.006H641.276l-42.5,68.579c-37.286-46.682-96.985-80.39-185-80.39-156.081,0-273.714,122.331-273.714,294.361S257.689,693.287,413.77,693.287c88.019,0,147.718-33.061,185-80.39l2.974,68.579H782.573V664.063C763.779,657.511,750.115,640.1,750.115,619.061ZM443.34,558.543c-91.079,0-152.547-70.993-152.547-161.986,0-90.433,61.468-159.013,152.547-159.013,90.39,0,154.831,68.58,154.831,159.013C598.171,487.55,533.729,558.543,443.34,558.543Z"
            transform="translate(0 704.367)" />
        <path class="background_letters"
            d="M704.453,619.061V325.045c0-136.555-92.8-222.85-224.015-222.85-84.528,0-145.434,37.8-175,77.416l-42.587-65.6H158.275V681.477h151.34V364.055c0-78.623,59.1-121.21,125.909-121.21,66.208,0,117.029,42.588,117.029,121.21V681.477h184.4V664.063C718.161,657.511,704.453,640.1,704.453,619.061Z"
            transform="translate(767.102 704.367)" />
        <path class="background_letters"
            d="M173.243,159.476V664.791h151.3V347.326c0-78.623,59.1-121.167,125.908-121.167,66.209,0,117.029,42.544,117.029,121.167V664.791H719.42V308.359c0-136.555-92.848-222.893-224.057-222.893-84.528,0-145.392,37.846-174.962,77.459L277.555,97.319H173.243V97.1H140.785v17.371C159.578,121.07,173.243,138.441,173.243,159.476Z"
            transform="translate(30.694 0)" />
    </g>
</svg>