<svg xmlns="http://www.w3.org/2000/svg" width="133.303" height="38.129" viewBox="0 0 133.303 38.129">
    <defs>
        <style>
            .main_logo {
                fill: #fff;
            }
        </style>
    </defs>
    <path class="main_logo"
        d="M172.234,93.3a8.036,8.036,0,1,0-8.033,7.83A7.755,7.755,0,0,0,172.234,93.3Zm-12.073,0a4.043,4.043,0,1,1,4.04,4.2A3.989,3.989,0,0,1,160.16,93.3Z"
        transform="translate(-137.77 -82.099)" />
    <path class="main_logo"
        d="M187.041,110.909a3.057,3.057,0,1,1-6.107,0v-8.44H176.91v8.941c0,3.743,2.771,6.4,7.031,6.4,4.243,0,7.109-2.693,7.109-6.5v-8.846h-4.009Z"
        transform="translate(-134.826 -79.686)" />
    <path class="main_logo"
        d="M256.355,102.2a4.175,4.175,0,0,0-3.916,2.365l-1.142-2.052h-2.819v15.033H252.5v-7.7c0-3.1,1.865-4.056,3.634-4.056a5.621,5.621,0,0,1,1.84.337v-3.685A5.945,5.945,0,0,0,256.355,102.2Z"
        transform="translate(-124.671 -79.725)" />
    <path class="main_logo"
        d="M240.785,102.2a7.488,7.488,0,0,0-7.722,7.829c0,4.683,3.415,7.83,8.74,7.83a11.853,11.853,0,0,0,5.1-1.137v-3.527a11.891,11.891,0,0,1-5.085,1.141c-2.474,0-4.353-1-4.759-3.1h10.867C248.911,105.671,245.4,102.2,240.785,102.2Zm-3.664,6.342c.172-1.707,1.612-2.961,3.758-2.961a3.17,3.17,0,0,1,3.445,2.961Z"
        transform="translate(-126.858 -79.725)" />
    <path class="main_logo"
        d="M156.217,115.887v-13.38h-2.883l-1.126,1.817a5.958,5.958,0,0,0-4.9-2.13c-4.135,0-7.251,3.241-7.251,7.8s3.116,7.861,7.251,7.861a5.91,5.91,0,0,0,4.9-2.13l.079,1.817h4.79v-.461A1.264,1.264,0,0,1,156.217,115.887Zm-8.127-1.6a4.037,4.037,0,0,1-4.042-4.291,3.979,3.979,0,0,1,4.042-4.212,4.037,4.037,0,0,1,4.1,4.212A4.1,4.1,0,0,1,148.09,114.284Z"
        transform="translate(-140.056 -79.725)" />
    <path class="main_logo"
        d="M175.94,115.887V108.1a5.6,5.6,0,0,0-5.934-5.9,5.731,5.731,0,0,0-4.636,2.051l-1.128-1.738h-2.77v15.033h4.009v-8.409a3.129,3.129,0,0,1,3.335-3.211,2.957,2.957,0,0,1,3.1,3.211v8.409H176.8v-.461A1.264,1.264,0,0,1,175.94,115.887Z"
        transform="translate(-137.017 -79.725)" />
    <path class="main_logo"
        d="M173.518,96.3c0,3.539,2.223,5.246,5.527,5.246a12.365,12.365,0,0,0,2.741-.329v-3.5a10.057,10.057,0,0,1-2.035.255,2.01,2.01,0,0,1-2.223-2.256V89.533h4.258V86.2h-4.353V82.517h-3.9v2.705a1.26,1.26,0,0,1-.824.973v0h-1.727v3.334h2.536Z"
        transform="translate(-135.668 -82.517)" />
    <path class="main_logo"
        d="M226.066,102.68a5.9,5.9,0,0,0-4.949,2.13V98.778h-4.805v.461a1.264,1.264,0,0,1,.86,1.192v17.594h3.93l.079-1.6a6.272,6.272,0,0,0,4.885,1.912c4.26,0,7.282-3.3,7.282-7.846C233.348,105.921,230.327,102.68,226.066,102.68Zm-.814,12.057a4.083,4.083,0,0,1-4.087-4.259,4.03,4.03,0,0,1,4.087-4.2,3.982,3.982,0,0,1,4.072,4.2A4.071,4.071,0,0,1,225.252,114.737Z"
        transform="translate(-129.235 -80.21)" />
    <path class="main_logo"
        d="M141.645,87.427v13.386h4.008V92.4a3.129,3.129,0,0,1,3.335-3.21,2.956,2.956,0,0,1,3.1,3.21v8.41h4.024V91.371a5.6,5.6,0,0,0-5.936-5.9,5.73,5.73,0,0,0-4.635,2.052l-1.135-1.738h-2.763v-.006h-.86v.46A1.265,1.265,0,0,1,141.645,87.427Z"
        transform="translate(-139.953 -82.099)" />
    <path class="main_logo"
        d="M216.94,115.887V108.1a5.564,5.564,0,0,0-5.9-5.9,6.2,6.2,0,0,0-5.215,2.662,5.39,5.39,0,0,0-5.041-2.662,5.684,5.684,0,0,0-4.6,2.051l-1.153-1.738h-2.746v15.033H196.3v-8.409a3.109,3.109,0,0,1,3.289-3.211,2.909,2.909,0,0,1,2.993,3.211v8.409H206.6v-8.5a3.08,3.08,0,0,1,3.3-3.117,2.9,2.9,0,0,1,3.007,3.211v8.409H217.8v-.461A1.264,1.264,0,0,1,216.94,115.887Z"
        transform="translate(-132.646 -79.725)" />
</svg>